<?xml version="1.0" standalone="no"?>
<!DOCTYPE svg PUBLIC "-//W3C//DTD SVG 20010904//EN"
 "http://www.w3.org/TR/2001/REC-SVG-20010904/DTD/svg10.dtd">
<svg version="1.0" xmlns="http://www.w3.org/2000/svg"
 width="240.000000pt" height="240.000000pt" viewBox="0 0 240.000000 240.000000"
 preserveAspectRatio="xMidYMid meet">
<metadata>
Created by potrace 1.11, written by Peter Selinger 2001-2013
</metadata>
<g transform="translate(0.000000,240.000000) scale(0.100000,-0.100000)"
fill="#000000" stroke="none">
<path d="M302 1813 l3 -287 33 -2 c18 -1 35 3 39 9 4 7 7 117 8 247 l0 235
241 1 c132 0 246 4 252 8 7 4 12 23 12 42 l0 34 -295 0 -295 0 2 -287z"/>
<path d="M502 1815 c-4 -5 -7 -61 -8 -122 -1 -129 -5 -123 91 -119 47 2 61 6
63 19 3 14 -5 17 -57 17 l-61 0 0 38 0 37 47 0 c36 0 48 4 48 15 0 11 -13 16
-47 18 -47 3 -48 4 -48 38 l0 34 61 0 c52 0 60 2 57 17 -3 14 -15 18 -71 18
-38 1 -71 -4 -75 -10z"/>
<path d="M762 1821 c-9 -5 2 -40 40 -128 60 -137 74 -147 107 -73 11 25 36 80
55 123 34 76 35 78 13 75 -17 -2 -30 -23 -62 -95 -22 -51 -43 -89 -46 -85 -4
4 -24 46 -44 95 -40 94 -44 100 -63 88z"/>
<path d="M1109 1805 c-1 -27 -1 -163 0 -201 l1 -31 75 0 c65 0 75 3 75 18 0
15 -10 19 -57 21 -58 3 -58 3 -59 36 -1 34 6 37 73 34 16 -1 21 5 20 19 -1 16
-8 19 -37 17 -47 -2 -59 6 -58 42 1 30 1 30 60 30 49 0 58 3 58 18 0 15 -10
17 -75 17 -68 0 -75 -1 -76 -20z"/>
<path d="M1406 1821 c-2 -3 -3 -60 -2 -126 1 -99 4 -120 16 -120 11 0 15 13
15 53 0 69 21 70 72 3 33 -43 69 -68 81 -57 2 2 -12 26 -31 53 l-35 48 23 29
c48 60 11 117 -79 121 -31 1 -58 -1 -60 -4z m112 -43 c30 -30 -2 -72 -50 -65
-18 3 -24 11 -26 40 -3 36 -2 37 30 37 19 0 39 -5 46 -12z"/>
<path d="M1680 1822 c0 -4 21 -34 45 -66 45 -60 47 -66 47 -121 -1 -43 7 -65
24 -65 11 0 14 15 14 61 0 56 3 64 45 119 25 32 45 63 45 68 0 23 -45 -4 -74
-45 l-31 -44 -21 25 c-12 14 -29 34 -37 46 -14 20 -57 37 -57 22z"/>
<path d="M835 1500 c3 -5 8 -10 11 -10 2 0 4 5 4 10 0 6 -5 10 -11 10 -5 0 -7
-4 -4 -10z"/>
<path d="M866 1438 c-7 -13 -32 -55 -55 -94 -22 -40 -46 -74 -53 -76 -7 -2
-66 -3 -130 -2 l-118 1 0 -163 c0 -90 3 -164 8 -165 10 -1 249 -1 288 0 l32 1
-2 113 c-1 61 1 121 4 132 4 11 4 31 0 45 -7 26 7 70 22 70 5 0 7 4 3 9 -3 5
1 16 9 24 8 8 12 18 8 22 -4 5 0 6 9 2 11 -3 16 0 16 11 0 43 2 45 21 31 15
-13 16 -12 4 3 -8 9 -11 22 -8 27 4 6 -2 15 -13 20 -27 15 -29 14 -45 -11z
m-136 -232 c0 -6 -12 -30 -28 -53 l-27 -41 -32 48 c-21 32 -28 50 -20 53 26 9
107 4 107 -7z m-110 -122 c0 -2 11 -22 25 -44 17 -26 30 -37 40 -34 8 4 13 9
11 13 -7 11 22 43 33 37 5 -4 13 -1 17 5 4 7 3 9 -4 5 -6 -3 -13 -2 -16 3 -3
5 1 12 9 15 8 3 14 11 13 18 -2 7 2 12 9 13 6 0 15 4 20 9 5 5 3 6 -4 2 -8 -4
-13 -1 -13 8 0 9 5 16 11 16 5 0 8 4 4 9 -3 5 -2 12 2 14 5 3 9 -37 10 -89 l3
-94 -53 -1 c-28 0 -78 -1 -110 -2 -33 -1 -61 2 -64 6 -5 8 -6 82 -4 161 1 29
2 29 31 -17 17 -26 30 -50 30 -53z"/>
<path d="M710 1029 c0 -5 5 -7 10 -4 6 3 10 8 10 11 0 2 -4 4 -10 4 -5 0 -10
-5 -10 -11z"/>
<path d="M994 1365 c-114 -57 -144 -212 -61 -315 12 -16 66 -53 80 -56 4 -1 8
-2 10 -4 17 -14 101 -15 125 -1 10 6 25 4 41 -6 23 -13 24 -13 8 0 -12 10 -14
17 -8 22 6 3 11 4 11 1 0 -3 15 11 33 30 46 49 58 64 53 64 -3 0 1 20 8 45 8
25 11 45 8 45 -4 0 -8 13 -9 28 -4 51 -5 55 -53 111 -8 10 -34 28 -57 40 -58
29 -126 28 -189 -4z m70 -52 c-5 14 0 17 26 17 19 0 39 -7 47 -17 8 -10 11
-12 7 -4 -4 9 -2 12 7 9 8 -3 13 -10 12 -16 -1 -5 5 -9 14 -8 9 0 25 -13 35
-31 64 -107 -13 -231 -135 -219 -71 7 -109 43 -132 123 -5 19 -3 22 12 17 16
-6 15 -5 -2 9 -18 15 -18 16 -2 17 9 0 17 5 17 11 0 5 -4 7 -10 4 -16 -10 -12
12 5 29 9 8 15 18 15 22 -1 3 13 16 32 29 30 20 34 21 45 6 12 -14 12 -14 7 2z"/>
<path d="M1298 1373 c-8 -29 2 -43 28 -43 13 0 24 -5 24 -10 0 -6 8 -5 20 2
17 11 22 10 29 -1 7 -11 9 -11 14 0 6 15 7 -5 10 -200 2 -129 3 -134 23 -137
15 -2 28 5 39 22 9 15 12 23 5 19 -15 -9 -11 53 4 74 8 11 8 13 -1 7 -9 -5
-13 2 -13 23 0 18 5 31 13 31 8 0 9 3 1 8 -13 8 -13 146 0 159 5 5 6 3 2 -4
-4 -7 -2 -13 3 -13 6 0 11 5 11 10 0 6 7 10 15 10 8 0 15 -6 15 -12 0 -9 3 -9
8 -2 4 5 18 10 32 10 21 0 25 4 25 29 l0 30 -151 3 c-138 2 -152 1 -156 -15z"/>
<path d="M1659 1373 c-3 -65 3 -378 7 -385 3 -5 10 -6 15 -3 5 4 9 2 9 -4 0
-6 7 -8 16 -4 8 3 48 6 87 7 53 1 75 -3 85 -14 11 -13 12 -13 10 0 -2 8 3 14
10 12 7 -1 12 9 12 27 0 35 -4 36 -107 36 -46 -1 -83 3 -83 7 0 4 5 8 11 8 6
0 3 7 -5 16 -21 20 -20 28 2 19 14 -5 15 -4 5 6 -7 7 -13 19 -13 27 0 8 5 10
13 6 9 -6 9 -5 0 7 -10 12 -8 15 13 17 13 1 24 -4 24 -11 0 -8 3 -9 8 -1 8 13
84 15 76 2 -3 -4 -3 -8 1 -8 12 0 22 46 13 63 -7 13 -19 16 -58 14 -28 -1 -50
1 -50 6 0 4 -8 3 -19 -2 -16 -9 -18 -7 -18 14 0 14 3 22 8 20 4 -3 11 -1 14 5
4 6 3 10 -2 9 -4 -1 -15 -1 -23 0 -13 1 -13 2 0 11 8 5 11 10 5 10 -5 0 -3 5
5 10 10 6 11 10 3 10 -7 0 -13 4 -13 8 0 5 7 9 15 9 8 0 15 -4 15 -9 0 -4 5
-8 11 -8 5 0 7 6 3 13 -5 7 0 6 11 -3 10 -8 16 -10 12 -3 -6 9 9 11 55 10 l63
-2 0 30 0 30 -122 3 c-112 2 -123 1 -124 -15z"/>
<path d="M866 1278 c3 -5 10 -6 15 -3 13 9 11 12 -6 12 -8 0 -12 -4 -9 -9z"/>
<path d="M1495 1261 c-3 -5 -2 -12 3 -15 5 -3 9 1 9 9 0 17 -3 19 -12 6z"/>
<path d="M1490 1140 c0 -5 5 -10 11 -10 5 0 7 5 4 10 -3 6 -8 10 -11 10 -2 0
-4 -4 -4 -10z"/>
<path d="M1306 1118 c3 -5 10 -6 15 -3 13 9 11 12 -6 12 -8 0 -12 -4 -9 -9z"/>
<path d="M1230 1026 c0 -2 9 -6 20 -9 11 -3 18 -1 14 4 -5 9 -34 13 -34 5z"/>
<path d="M2022 866 c-4 -6 -7 -116 -6 -243 0 -162 -2 -233 -10 -235 -6 0 -112
-2 -236 -4 -124 -1 -233 -3 -242 -3 -14 -1 -18 -10 -18 -40 l0 -40 295 -1 295
-1 0 288 0 288 -35 1 c-19 0 -39 -4 -43 -10z"/>
<path d="M587 739 c-38 -10 -55 -26 -76 -68 -20 -40 -18 -81 7 -123 34 -58
126 -77 176 -37 35 27 17 42 -28 24 -39 -16 -74 -10 -102 16 -30 28 -37 62
-21 101 21 49 57 65 113 50 25 -7 50 -10 55 -6 12 7 -28 44 -50 45 -9 0 -23 2
-31 3 -8 2 -28 -1 -43 -5z"/>
<path d="M833 743 c-33 -6 -81 -58 -89 -98 -9 -47 1 -79 35 -118 27 -29 35
-32 88 -32 45 0 63 5 79 20 103 98 27 251 -113 228z m98 -62 c78 -79 -21 -199
-113 -137 -77 52 -40 164 55 166 19 0 39 -10 58 -29z"/>
<path d="M1052 741 c-8 -5 -13 -31 -14 -72 -1 -106 1 -115 27 -145 21 -25 32
-29 74 -29 42 0 53 4 75 30 24 27 26 38 26 121 0 93 -3 106 -24 98 -7 -3 -11
-34 -11 -89 0 -47 -4 -91 -10 -98 -21 -29 -49 -36 -83 -22 -36 16 -34 10 -37
123 -2 89 -4 95 -23 83z"/>
<path d="M1550 742 c-19 -7 -10 -32 13 -33 55 -3 52 2 54 -107 0 -57 4 -106 7
-109 3 -3 11 -3 18 0 10 3 13 32 13 111 -1 102 0 107 20 105 42 -3 55 1 55 19
0 15 -11 17 -85 17 -47 0 -89 -1 -95 -3z"/>
<path d="M1786 733 c-27 -14 -41 -55 -27 -81 5 -10 29 -27 53 -37 65 -29 75
-53 33 -81 -23 -15 -27 -15 -50 0 -30 20 -45 20 -45 2 0 -20 39 -46 68 -46 35
0 80 30 87 57 10 40 -15 76 -65 94 -54 20 -68 54 -26 65 15 3 32 1 39 -4 8 -7
18 -7 27 -1 13 8 11 12 -10 28 -27 22 -48 23 -84 4z"/>
<path d="M1297 733 c-3 -7 -2 -197 2 -230 0 -7 8 -13 16 -13 12 0 15 17 15 95
0 52 3 95 8 95 4 0 26 -29 49 -63 61 -90 98 -131 110 -124 7 5 12 51 12 127 1
114 0 120 -19 120 -19 0 -20 -6 -19 -80 1 -45 -1 -83 -3 -86 -3 -2 -32 34 -64
80 -43 62 -65 85 -81 85 -12 1 -24 -2 -26 -6z"/>
</g>
</svg>
